<svg height="512" viewBox="0 0 128 128" width="512" xmlns="http://www.w3.org/2000/svg"><g><path d="m112.492 63.5a14.892 14.892 0 0 0 -1.972.144 49.116 49.116 0 0 0 -41.7-33.4l-13.901-10.234a4.714 4.714 0 0 1 2.8-8.51h2.564a4.72 4.72 0 0 1 4.714 4.714v2.539a1.751 1.751 0 0 0 1.75 1.75h8a1.751 1.751 0 0 0 1.75-1.75v-2.539a16.232 16.232 0 0 0 -16.219-16.214h-2.564a16.214 16.214 0 0 0 -9.614 29.27l3.261 2.4a49.193 49.193 0 0 0 -33.881 31.978 14.892 14.892 0 0 0 -1.972-.144 15.508 15.508 0 0 0 0 31.016 14.934 14.934 0 0 0 1.974-.144 48.986 48.986 0 0 0 93.036 0 14.934 14.934 0 0 0 1.974.144 15.508 15.508 0 0 0 0-31.016zm-62.318-37.049a12.714 12.714 0 0 1 7.54-22.951h2.564a12.728 12.728 0 0 1 12.714 12.714v.786h-4.5v-.789a8.223 8.223 0 0 0 -8.214-8.211h-2.564a8.214 8.214 0 0 0 -4.871 14.828l9.8 7.216a49 49 0 0 0 -6.716.642zm-34.666 64.569a12.008 12.008 0 0 1 0-24.016c.318 0 .645.032.971.06a48.984 48.984 0 0 0 0 23.9c-.325.024-.653.056-.971.056zm48.492 33.489a45.5 45.5 0 1 1 45.5-45.5 45.551 45.551 0 0 1 -45.5 45.5zm48.492-33.489c-.318 0-.646-.032-.972-.06a48.984 48.984 0 0 0 0-23.9c.326-.028.653-.06.971-.06a12.008 12.008 0 1 1 0 24.016z"/><path d="m51.209 76.821a1.75 1.75 0 0 0 3.5 0 11.672 11.672 0 0 0 -23.333 0 1.75 1.75 0 0 0 3.5 0 8.175 8.175 0 0 1 16.333 0z"/><path d="m84.957 65.512a11.505 11.505 0 0 0 -11.667 11.309 1.75 1.75 0 0 0 3.5 0 8.175 8.175 0 0 1 16.334 0 1.75 1.75 0 0 0 3.5 0 11.5 11.5 0 0 0 -11.667-11.309z"/><path d="m79.375 94.264a1.75 1.75 0 0 0 -1.75 1.75c0 4.233-6.239 7.808-13.625 7.808s-13.625-3.575-13.625-7.808a1.75 1.75 0 0 0 -3.5 0c0 6.341 7.522 11.308 17.125 11.308s17.125-4.967 17.125-11.308a1.75 1.75 0 0 0 -1.75-1.75z"/><path d="m63.726 91.741h3.893a1.75 1.75 0 0 0 0-3.5h-3.893a1.594 1.594 0 0 1 -1.576-1.833l1.412-9.325a1.75 1.75 0 1 0 -3.46-.524l-1.413 9.325a5.094 5.094 0 0 0 5.037 5.857z"/></g></svg>