<svg id="Capa_1" enable-background="new 0 0 512.045 512.045" height="512" viewBox="0 0 512.045 512.045" width="512" xmlns="http://www.w3.org/2000/svg"><g><path d="m512.045 314.97c0-26.996-21.963-48.959-48.959-48.959h-402.919v-200.1c0-19.789 16.1-35.888 35.889-35.888h32.891c5.556 0 10.856 2.385 14.542 6.542l15.043 16.97c-.9 4.373-1.374 8.901-1.374 13.536v19.677c-5.822 2.061-10 7.6-10 14.128 0 8.284 6.716 15 15 15h124.096c8.284 0 15-6.716 15-15 0-6.528-4.178-12.067-10-14.128v-19.677c0-36.971-30.077-67.048-67.048-67.048-20.701 0-39.237 9.434-51.546 24.225l-6.722-7.582c-9.376-10.578-22.858-16.643-36.992-16.643h-32.89c-36.331 0-65.889 29.557-65.889 65.888v202.1c0 .581.041 1.151.105 1.715-17.751 7.358-30.272 24.863-30.272 45.244 0 20.341 12.472 37.819 30.167 45.203v27.11c0 53.691 43.681 97.372 97.372 97.372h8.573v12.368c0 8.284 6.716 15 15 15s15-6.716 15-15v-12.368h179.82v12.368c0 8.284 6.716 15 15 15s15-6.716 15-15v-12.368h8.573c53.691 0 97.372-43.681 97.372-97.372v-27.11c17.696-7.384 30.168-24.863 30.168-45.203zm-287.84-284.948c20.429 0 37.048 16.62 37.048 37.048v18.805h-74.096v-18.804c0-20.429 16.619-37.049 37.048-37.049zm160.301 424.633h-256.967c-37.149 0-67.372-30.223-67.372-67.372v-23.354h391.711v23.354c0 37.149-30.223 67.372-67.372 67.372zm78.58-120.726h-414.127c-10.454 0-18.959-8.505-18.959-18.959s8.505-18.959 18.959-18.959h414.127c10.454 0 18.959 8.505 18.959 18.959s-8.505 18.959-18.959 18.959z"/><path d="m296.862 218.202c-1.278-6.157-6.267-10.957-12.501-11.905-6.187-.94-12.489 2.249-15.428 7.765-2.943 5.522-2.105 12.499 2.11 17.14 4.208 4.632 11.068 6.186 16.85 3.78 6.488-2.699 10.406-9.856 8.969-16.78z"/><path d="m236.862 218.202c-1.278-6.158-6.266-10.957-12.501-11.905-6.185-.94-12.489 2.25-15.428 7.765-2.943 5.522-2.105 12.499 2.11 17.14 4.209 4.634 11.066 6.192 16.85 3.78 6.487-2.704 10.408-9.85 8.969-16.78z"/><path d="m176.862 218.202c-1.278-6.156-6.269-10.958-12.501-11.905-6.186-.94-12.489 2.249-15.428 7.765-2.943 5.522-2.105 12.499 2.11 17.14 4.206 4.631 11.068 6.186 16.85 3.78 6.487-2.698 10.406-9.858 8.969-16.78z"/><path d="m297.082 159.652c-.648-6.241-5.188-11.533-11.281-13.065-6.062-1.525-12.655.996-16.118 6.215-3.455 5.206-3.322 12.233.424 17.257 3.749 5.028 10.398 7.241 16.405 5.412 6.748-2.052 11.286-8.779 10.57-15.819z"/><path d="m237.082 159.652c-.648-6.241-5.188-11.532-11.281-13.065-6.068-1.526-12.647 1.001-16.118 6.215-3.472 5.215-3.3 12.219.424 17.256 3.721 5.033 10.418 7.246 16.406 5.424 6.745-2.052 11.284-8.801 10.569-15.83z"/><path d="m177.082 159.652c-.647-6.239-5.19-11.533-11.281-13.065-6.062-1.525-12.655.996-16.118 6.215-3.465 5.222-3.305 12.213.424 17.256 3.721 5.033 10.418 7.246 16.406 5.424 6.744-2.051 11.283-8.805 10.569-15.83z"/></g></svg>