<?xml version="1.0"?>
<svg xmlns="http://www.w3.org/2000/svg" xmlns:xlink="http://www.w3.org/1999/xlink" xmlns:svgjs="http://svgjs.com/svgjs" version="1.1" width="512" height="512" x="0" y="0" viewBox="0 0 128 128" style="enable-background:new 0 0 512 512" xml:space="preserve"><g><g xmlns="http://www.w3.org/2000/svg"><path d="M59.926,53.086a1.747,1.747,0,0,0,1.216-.491,27.225,27.225,0,0,0,5.8-8.15,1.75,1.75,0,1,0-3.175-1.472,23.72,23.72,0,0,1-5.061,7.1,1.75,1.75,0,0,0,1.216,3.009Z" fill="#ffffff" data-original="#000000" style=""/><path d="M47.337,47.417V37.932h4.007a1.75,1.75,0,0,0,1.75-1.75V29.5a1.749,1.749,0,0,0-1.75-1.75H47.337V23.583a1.749,1.749,0,0,0-1.75-1.75H38.9a1.75,1.75,0,0,0-1.75,1.75v4.163H33.144a1.749,1.749,0,0,0-1.75,1.75v6.686a1.75,1.75,0,0,0,1.75,1.75h4.007v9.485a1.75,1.75,0,0,0,1.75,1.75h6.686A1.749,1.749,0,0,0,47.337,47.417Zm-3.5-11.235v9.485H40.651V36.182a1.749,1.749,0,0,0-1.75-1.75H34.894V31.246H38.9a1.749,1.749,0,0,0,1.75-1.75V25.333h3.186V29.5a1.749,1.749,0,0,0,1.75,1.75h4.007v3.186H45.587A1.749,1.749,0,0,0,43.837,36.182Z" fill="#ffffff" data-original="#000000" style=""/><path d="M105.217,96.058a1.747,1.747,0,0,0-2.247.865c-.656,1.377-1.308,2.652-1.908,3.777-.082-1.462-.141-3.136-.144-4.921A1.75,1.75,0,0,0,99.664,94.1a59.943,59.943,0,0,0-13.2-2.34,1.742,1.742,0,0,0-1.836,1.457,85.852,85.852,0,0,1-1.993,8.784,86.216,86.216,0,0,1-2-8.787,1.736,1.736,0,0,0-1.836-1.454A59.717,59.717,0,0,0,65.6,94.1a1.75,1.75,0,0,0-1.252,1.674c0,1.787-.064,3.464-.146,4.929-.6-1.126-1.259-2.4-1.919-3.786a1.746,1.746,0,0,0-2.245-.863,46.484,46.484,0,0,0-10.7,6.042l-1.65-28.845c0-.036.007-.072,0-.109-.188-3.179,2.61-6.961,6.814-9.227a1.289,1.289,0,0,0,.129-.064c.052-.028.113-.054.167-.082.647-.266,1.287-.546,1.914-.851.026-.01.048-.021.074-.03a1.709,1.709,0,0,0,.38-.2,33.242,33.242,0,0,0,18.291-29.65V21.744A13.964,13.964,0,0,1,78.7,12.821a4.6,4.6,0,0,0,1.033-2.814,4.959,4.959,0,0,0-1.4-3.662,5.211,5.211,0,0,0-3.74-1.595H9.9a5.216,5.216,0,0,0-3.743,1.6,4.94,4.94,0,0,0-1.4,3.64,4.609,4.609,0,0,0,1.039,2.843,13.959,13.959,0,0,1,3.238,8.915V33.038a33.244,33.244,0,0,0,18.3,29.652,1.74,1.74,0,0,0,.379.2c.026.009.048.02.074.03.629.3,1.271.587,1.921.853.051.027.11.052.16.079s.083.043.126.063c4.206,2.265,7,6.048,6.817,9.228h0a.193.193,0,0,0,0,.024l-1.959,34.222c-3.311.5-6.13,3.455-7.5,7.98l-1.7,5.62a1.749,1.749,0,0,0,1.674,2.257H57.17a1.753,1.753,0,0,0,1.4-.7c.021-.028.033-.06.051-.089,6.564.682,14.751.794,23.994.794,23.791,0,40.631-.723,40.631-10.07C123.25,107.388,116,100.508,105.217,96.058ZM40.2,75h4.075L46,105.09a20.181,20.181,0,0,0-1.824,2.22H38.353ZM12.531,33.038V21.744A17.459,17.459,0,0,0,8.487,10.6a1.111,1.111,0,0,1-.235-.73,1.485,1.485,0,0,1,.426-1.1A1.692,1.692,0,0,1,9.9,8.25h64.7a1.7,1.7,0,0,1,1.217.52,1.5,1.5,0,0,1,.426,1.115,1.089,1.089,0,0,1-.229.7,17.459,17.459,0,0,0-4.051,11.155V33.038a29.713,29.713,0,0,1-59.425,0ZM42.245,66.25a33.323,33.323,0,0,0,4.54-.321,12.43,12.43,0,0,0-2.5,5.571H40.208A12.429,12.429,0,0,0,37.7,65.928,33.321,33.321,0,0,0,42.245,66.25Zm-12.567,53.5,1.016-3.363c1.025-3.388,3.044-5.577,5.146-5.577h6.546A8.046,8.046,0,0,0,42,113.18c0,2.984,1.723,5.087,4.834,6.57Zm52.941,0c-14.781,0-37.119,0-37.119-6.57,0-3.389,5.021-9.046,14.36-13.239,2.151,4.3,4.038,7.281,4.126,7.418a1.75,1.75,0,0,0,3.212-.71,91.684,91.684,0,0,0,.634-9.542,56.374,56.374,0,0,1,9.627-1.731,93.7,93.7,0,0,0,3.527,13.077,1.75,1.75,0,0,0,3.289,0,92.646,92.646,0,0,0,3.518-13.077,56.6,56.6,0,0,1,9.637,1.732,91.888,91.888,0,0,0,.633,9.542,1.75,1.75,0,0,0,3.213.709c.088-.138,1.973-3.118,4.116-7.416,9.338,4.2,14.358,9.856,14.358,13.237C119.75,119.75,97.405,119.75,82.619,119.75Z" fill="#ffffff" data-original="#000000" style=""/></g></g></svg>
