<?xml version="1.0" encoding="iso-8859-1"?>
<!-- Generator: Adobe Illustrator 19.0.0, SVG Export Plug-In . SVG Version: 6.00 Build 0)  -->
<svg version="1.1" id="Capa_1" xmlns="http://www.w3.org/2000/svg" xmlns:xlink="http://www.w3.org/1999/xlink" x="0px" y="0px"
	 viewBox="0 0 480.004 480.004" style="enable-background:new 0 0 480.004 480.004;" xml:space="preserve">
<g>
	<g>
		<path d="M479.315,468.754l-96-216c-1.284-2.89-4.15-4.752-7.312-4.752h-272c-3.162,0-6.028,1.862-7.312,4.752l-96,216
			c-1.794,4.038,0.025,8.765,4.063,10.559c1.023,0.454,2.13,0.689,3.249,0.689h464c4.418,0.001,8-3.581,8.001-7.999
			C480.004,470.884,479.769,469.777,479.315,468.754z M370.803,264.002l14.224,32h-83.008l-4.744-32H370.803z M198.659,264.002
			h82.44l4.744,32h-93.112L198.659,264.002z M288.211,312.002l9.48,64H177.915l11.856-64H288.211z M109.203,264.002h73.2l-5.928,32
			H94.979L109.203,264.002z M87.883,312.002h0.12h85.496l-11.856,64H59.427L87.883,312.002z M145.379,464.002H20.315l32-72h106.4
			L145.379,464.002z M161.603,464.002l13.336-72h125.128l10.664,72H161.603z M304.387,312.002h87.616h0.12l28.456,64H313.867
			L304.387,312.002z M326.907,464.002l-10.672-72h111.456l32,72H326.907z"/>
	</g>
</g>
<g>
	<g>
		<path d="M311.557,96.028c-3.738-33.43-30.124-59.817-63.554-63.554V8.002c0-4.418-3.582-8-8-8s-8,3.582-8,8v24.472
			c-39.518,4.418-67.972,40.036-63.554,79.554c4.418,39.518,40.036,67.972,79.554,63.554
			C287.521,171.164,315.975,135.546,311.557,96.028z M200.003,128.002h-8c-0.784,0.039-1.558,0.196-2.296,0.464
			c-2.534-5.191-4.243-10.746-5.064-16.464h15.36V128.002z M200.003,96.002h-15.36c0.821-5.718,2.53-11.273,5.064-16.464
			c0.738,0.268,1.512,0.425,2.296,0.464h8V96.002z M232.003,159.362c-5.718-0.82-11.273-2.529-16.464-5.064
			c0.268-0.738,0.425-1.512,0.464-2.296v-8h16V159.362z M232.003,128.002h-16v-16h16V128.002z M232.003,96.002h-16v-16h16V96.002z
			 M232.003,64.002h-16v-8c-0.039-0.784-0.196-1.558-0.464-2.296c5.191-2.535,10.746-4.244,16.464-5.064V64.002z M248.003,80.002h16
			v16h-16V80.002z M248.003,112.002h16v16h-16V112.002z M248.003,159.362v-15.36h16v8c0.039,0.784,0.196,1.558,0.464,2.296
			C259.276,156.833,253.721,158.542,248.003,159.362z M264.003,56.002v8h-16v-15.36c5.718,0.82,11.273,2.529,16.464,5.064
			C264.199,54.444,264.042,55.218,264.003,56.002z M290.299,128.466c-0.738-0.268-1.512-0.425-2.296-0.464h-8v-16h15.36
			C294.542,117.72,292.833,123.275,290.299,128.466z M280.003,96.002v-16h8c0.784-0.039,1.558-0.196,2.296-0.464
			c2.534,5.191,4.243,10.746,5.064,16.464H280.003z"/>
	</g>
</g>
<g>
	<g>
		<path d="M88.003,80.002h-8v-8c0-4.418-3.582-8-8-8s-8,3.582-8,8v8h-8c-4.418,0-8,3.582-8,8s3.582,8,8,8h8v8c0,4.418,3.582,8,8,8
			s8-3.582,8-8v-8h8c4.418,0,8-3.582,8-8S92.421,80.002,88.003,80.002z"/>
	</g>
</g>
<g>
	<g>
		<path d="M424.003,152.002h-8v-8c0-4.418-3.582-8-8-8s-8,3.582-8,8v8h-8c-4.418,0-8,3.582-8,8s3.582,8,8,8h8v8c0,4.418,3.582,8,8,8
			s8-3.582,8-8v-8h8c4.418,0,8-3.582,8-8S428.421,152.002,424.003,152.002z"/>
	</g>
</g>
<g>
	<g>
		<path d="M360.003,16.002h-8v-8c0-4.418-3.582-8-8-8s-8,3.582-8,8v8h-8c-4.418,0-8,3.582-8,8s3.582,8,8,8h8v8c0,4.418,3.582,8,8,8
			s8-3.582,8-8v-8h8c4.418,0,8-3.582,8-8S364.421,16.002,360.003,16.002z"/>
	</g>
</g>
<g>
	<g>
		<path d="M152.003,200.002h-8v-8c0-4.418-3.582-8-8-8s-8,3.582-8,8v8h-8c-4.418,0-8,3.582-8,8s3.582,8,8,8h8v8c0,4.418,3.582,8,8,8
			s8-3.582,8-8v-8h8c4.418,0,8-3.582,8-8S156.421,200.002,152.003,200.002z"/>
	</g>
</g>
<g>
</g>
<g>
</g>
<g>
</g>
<g>
</g>
<g>
</g>
<g>
</g>
<g>
</g>
<g>
</g>
<g>
</g>
<g>
</g>
<g>
</g>
<g>
</g>
<g>
</g>
<g>
</g>
<g>
</g>
</svg>
