<?xml version="1.0" encoding="iso-8859-1"?>
<!-- Generator: Adobe Illustrator 19.0.0, SVG Export Plug-In . SVG Version: 6.00 Build 0)  -->
<svg version="1.1" id="Capa_1" xmlns="http://www.w3.org/2000/svg" xmlns:xlink="http://www.w3.org/1999/xlink" x="0px" y="0px"
	 viewBox="0 0 512 512" style="enable-background:new 0 0 512 512;" xml:space="preserve">
<g>
	<g>
		<path d="M44.07,261.93C42.21,260.07,39.63,259,37,259s-5.21,1.069-7.07,2.93C28.07,263.79,27,266.37,27,269s1.07,5.21,2.93,7.069
			C31.79,277.93,34.37,279,37,279s5.21-1.07,7.07-2.931C45.93,274.21,47,271.63,47,269S45.93,263.79,44.07,261.93z"/>
	</g>
</g>
<g>
	<g>
		<path d="M475,134h-46V37.01C429,16.603,412.397,0,391.99,0H64.01C43.603,0,27,16.603,27,37.01V231c0,5.523,4.477,10,10,10
			s10-4.477,10-10V37.01C47,27.631,54.631,20,64.01,20h327.98c9.379,0,17.01,7.631,17.01,17.01V134h-46c-5.523,0-10,4.477-10,10v224
			c0,5.522,4.477,10,10,10h46v96.989c0,9.38-7.631,17.011-17.01,17.011H64.01C54.631,492,47,484.369,47,474.989V312
			c0-5.522-4.477-10-10-10s-10,4.478-10,10v162.989C27,495.397,43.603,512,64.01,512h327.98c20.408,0,37.01-16.603,37.01-37.011V378
			h46c5.523,0,10-4.478,10-10V144C485,138.477,480.523,134,475,134z M465,246h-64.667c-5.523,0-10,4.477-10,10
			c0,5.522,4.477,10,10,10H465v92h-92V154h92V246z"/>
	</g>
</g>
<g>
	<g>
		<path d="M453.641,217.5l-25.981-45c-1.786-3.094-5.087-5-8.66-5s-6.874,1.906-8.66,5l-25.981,45c-1.787,3.094-1.787,6.906,0,10
			c1.786,3.094,5.087,5,8.66,5h51.962c3.573,0,6.874-1.906,8.66-5C455.428,224.406,455.428,220.594,453.641,217.5z M410.34,212.5
			l8.66-15l8.66,15H410.34z"/>
	</g>
</g>
<g>
	<g>
		<path d="M453.641,284.5c-1.786-3.094-5.087-5-8.66-5h-51.962c-3.573,0-6.874,1.906-8.66,5c-1.787,3.094-1.787,6.906,0,10
			l25.981,45c1.786,3.094,5.087,5,8.66,5s6.874-1.906,8.66-5l25.981-45C455.428,291.406,455.428,287.594,453.641,284.5z M419,314.5
			l-8.66-15h17.32L419,314.5z"/>
	</g>
</g>
<g>
	<g>
		<path d="M293,308.202c5.523,0,10-4.478,10-10v-89.568c0-25.614-18.32-47.369-43.561-51.727l-9.561-1.651
			c-2.795-0.483-5.048-2.32-6.146-4.768C257.105,141.959,266,127.003,266,110v-8c0-26.467-21.533-48-48-48s-48,21.533-48,48v8
			c0,17.002,8.894,31.957,22.265,40.487c-1.098,2.449-3.351,4.286-6.147,4.769l-9.558,1.651C151.32,161.265,133,183.02,133,208.634
			v89.568c0,5.522,4.477,10,10,10h23.009v143.735h-55.001v0.001c-5.523,0-10,4.478-10,10c0,5.522,4.477,10,10,10H293
			c5.523,0,10-4.478,10-10c0-5.522-4.477-10-10-10h-23.002V308.202H293z M190,110v-8c0-15.439,12.561-28,28-28
			c15.439,0,28,12.561,28,28v8c0,15.439-12.561,28-28,28C202.561,138,190,125.439,190,110z M249.997,451.938h-21.994V337.945
			c0-5.522-4.477-10-10-10c-5.523,0-10,4.478-10,10v113.992h-21.994V291.923h63.988V451.938z M259.998,215.813
			c-5.523,0-10,4.477-10,10v46.109H186.01v-46.109c0-5.523-4.477-10-10-10c-5.523,0-10,4.477-10,10v62.389H153v-79.568
			c0-15.855,11.34-29.321,26.963-32.019l9.558-1.651c9.997-1.726,17.973-8.519,21.501-17.477c2.28,0.334,4.608,0.513,6.978,0.513
			c2.369,0,4.697-0.179,6.975-0.513c3.528,8.958,11.504,15.75,21.5,17.477l9.561,1.651C271.66,179.313,283,192.779,283,208.634
			v79.568h-13.002v-62.389C269.998,220.29,265.521,215.813,259.998,215.813z"/>
	</g>
</g>
<g>
	<g>
		<path d="M336.74,454.871c-1.86-1.86-4.44-2.931-7.07-2.931c-2.64,0-5.21,1.07-7.07,2.931c-1.87,1.859-2.93,4.439-2.93,7.069
			s1.06,5.21,2.93,7.07c1.86,1.86,4.43,2.93,7.07,2.93c2.63-0.001,5.21-1.07,7.07-2.93s2.93-4.44,2.93-7.07
			S338.6,456.73,336.74,454.871z"/>
	</g>
</g>
<g>
</g>
<g>
</g>
<g>
</g>
<g>
</g>
<g>
</g>
<g>
</g>
<g>
</g>
<g>
</g>
<g>
</g>
<g>
</g>
<g>
</g>
<g>
</g>
<g>
</g>
<g>
</g>
<g>
</g>
</svg>
