<?xml version="1.0"?>
<svg xmlns="http://www.w3.org/2000/svg" xmlns:xlink="http://www.w3.org/1999/xlink"  version="1.1" width="512" height="512" x="0" y="0" viewBox="0 0 480 480" style="enable-background:new 0 0 512 512" xml:space="preserve" class=""><g>
<g xmlns="http://www.w3.org/2000/svg">
	<g>
		<path d="M433.268,409.976l-61.272-53.608V116c0-15.464-12.536-28-28-28c-0.6,0-1.224,0.104-1.832,0.152    c8.693-6.759,13.794-17.141,13.832-28.152V36c-0.022-19.873-16.127-35.978-36-36c-2.284,0.01-4.561,0.24-6.8,0.688    c-1.16,0.224-2.248,0.624-3.368,0.952c-0.968,0.296-1.952,0.528-2.888,0.904c-1.374,0.56-2.711,1.209-4,1.944    c-0.568,0.312-1.152,0.584-1.704,0.92c-1.377,0.869-2.694,1.828-3.944,2.872c-0.376,0.312-0.752,0.6-1.112,0.92    c-1.273,1.141-2.462,2.37-3.56,3.68c-0.264,0.312-0.528,0.624-0.8,0.952c-1.087,1.374-2.071,2.826-2.944,4.344    c-0.192,0.336-0.376,0.68-0.552,1.024c-0.854,1.581-1.584,3.226-2.184,4.92c-0.12,0.336-0.216,0.688-0.328,1.04    c-0.575,1.779-1.011,3.601-1.304,5.448c0,0.088-0.048,0.16-0.056,0.248c-0.008,0.088,0,0.136,0,0.208    c-0.265,1.633-0.418,3.282-0.456,4.936v24c0.045,12.636,6.729,24.318,17.6,30.76c-10.004,3.994-17.982,11.845-22.136,21.784    c-3.437-0.747-7.003-0.662-10.4,0.248c-12.238-3.048-24.651,4.318-27.84,16.52l-2.992,10.96c-1.981-3.036-4.381-5.778-7.128-8.144    l-15.616-13.016c7.922-6.782,12.491-16.683,12.512-27.112V68c-0.011-10.938-5.02-21.271-13.6-28.056    c-1.391-1.104-2.862-2.104-4.4-2.992h-0.04l-0.072-0.04L209.66,36.8l-0.12-0.072l-0.456-0.248l-0.112-0.064    c-1.361-0.738-2.766-1.39-4.208-1.952h-0.04h-0.048h-0.048c-0.464-0.176-0.968-0.336-1.536-0.512l-0.8-0.232l-0.384-0.112    c-1.052-0.324-2.12-0.591-3.2-0.8h-0.064c-2.162-0.461-4.359-0.731-6.568-0.808h-0.08h-0.088    c-2.774-0.027-5.541,0.301-8.232,0.976c-1.128-0.622-2.392-0.957-3.68-0.976H168.66c-25.24,0.041-47.348,16.925-54.032,41.264    L76.276,213.896c-1.162,4.263,1.352,8.66,5.614,9.822c0.686,0.187,1.394,0.282,2.106,0.282h53.824    c-25.581,30.125-42.618,66.558-49.336,105.504l-14.552,83.68c-3.468,20.151-13.11,38.726-27.592,53.16    c-3.124,3.125-3.123,8.19,0.002,11.314c1.5,1.499,3.534,2.342,5.654,2.342h176c4.418,0,8-3.582,8-8V246.488    c14.887-3.784,26.577-15.3,30.584-30.128l6.136-23.016l3.28,8.192v251.152l-13.656,13.656c-3.124,3.125-3.123,8.19,0.002,11.314    c1.5,1.499,3.534,2.342,5.654,2.342h56c4.418,0,8-3.582,8-8v-78.4l48,42V464c-0.002,4.418,3.577,8.002,7.996,8.004    c2.375,0.001,4.628-1.053,6.148-2.876l40-48C436.929,417.791,436.542,412.839,433.268,409.976z M220.796,144.424    c4.993,4.106,7.997,10.148,8.256,16.608c0.305,6.134-1.878,12.131-6.056,16.632l-12.24-26.928L200.42,128h0.68L220.796,144.424z     M186.02,54.76l0.8-6.032c2.134-0.586,4.356-0.783,6.56-0.584c0.344,0,0.68,0.056,1.016,0.104l-2.048,1.712l-6.4,5.296    L186.02,54.76z M180.988,91.936l1.8-13.176l25.92-21.6c2.141,3.21,3.285,6.982,3.288,10.84v24c0,11.046-8.954,20-20,20    c-4.82-0.018-9.467-1.799-13.064-5.008L180.988,91.936z M94.468,208l35.6-130.528C134.84,60.087,150.632,48.026,168.66,48h2.168    l-21.816,160H94.468z M179.052,208h-13.896l2.984-21.832L179.052,208z M159.348,224h27.704l0.216,0.44    c0.861,1.701,1.831,3.344,2.904,4.92c0.336,0.496,0.728,0.944,1.08,1.432c0.8,1.032,1.544,2.048,2.4,3    c0.464,0.52,0.968,1,1.464,1.504c0.8,0.8,1.6,1.6,2.504,2.4c0.552,0.464,1.128,0.912,1.712,1.368    c0.88,0.68,1.784,1.336,2.72,1.944c0.616,0.408,1.248,0.8,1.888,1.176c0.968,0.56,1.952,1.072,2.968,1.6    c0.656,0.32,1.32,0.632,1.992,0.92c1.064,0.44,2.16,0.8,3.256,1.176c0.672,0.216,1.328,0.456,2.008,0.64    c0.888,0.24,1.792,0.408,2.696,0.592c-33.373,29.028-70.37,53.607-110.064,73.12C115.257,283.98,133.423,250.714,159.348,224z     M219.996,464H69.348c5.834-8.076,10.584-16.881,14.128-26.192c55.616-19.706,103.459-56.705,136.52-105.576V464z M219.996,301.84    l-3.92,6.72c-29.004,49.708-73.666,88.4-127,110.024c0.176-0.896,0.464-1.752,0.616-2.656l13.256-76.216    c42.12-19.524,81.477-44.527,117.048-74.36V301.84z M251.124,212.232c-2.96,10.915-12.496,18.766-23.776,19.576l-1.144,0.112    c-0.265,0.043-0.532,0.069-0.8,0.08c-10.092,0.03-19.324-5.678-23.808-14.72l-2.4-4.856l-27.2-54.4l3.384-24.8l0.64-4.688    c1.294-0.36,2.632-0.541,3.976-0.536h2.848l37.872,83.312c0.337,0.74,0.788,1.423,1.336,2.024c0.072,0.072,0.16,0.12,0.232,0.2    c0.472,0.504,1.011,0.943,1.6,1.304c0.08,0.048,0.168,0.072,0.24,0.112c0.608,0.349,1.259,0.618,1.936,0.8    c0.176,0,0.352,0,0.536,0.072c0.461,0.1,0.929,0.159,1.4,0.176c0.136,0,0.272,0,0.408,0s0.152,0,0.232,0s0.216-0.064,0.336-0.08    c0.24,0,0.48,0,0.72-0.072c0.24-0.072,0.376-0.176,0.584-0.24c0.482-0.148,0.951-0.338,1.4-0.568    c0.322-0.165,0.632-0.352,0.928-0.56c0.393-0.29,0.76-0.614,1.096-0.968c0.252-0.253,0.49-0.52,0.712-0.8    c0.279-0.406,0.52-0.838,0.72-1.288c0.174-0.319,0.323-0.651,0.448-0.992c0-0.112,0.104-0.2,0.136-0.304l17.72-64.968l2.256,5.648    l7.088,17.696L251.124,212.232z M307.18,20.8l0.184-0.152c1.037-0.855,2.157-1.602,3.344-2.232    c0.192-0.104,0.376-0.216,0.576-0.312c1.104-0.537,2.255-0.968,3.44-1.288c0.272-0.072,0.536-0.184,0.8-0.256    c1.464-0.358,2.965-0.546,4.472-0.56c11.046,0,20,8.954,20,20v0.688l-10.344-10.344c-1.5-1.5-3.534-2.344-5.656-2.344h-19.864    C305.025,22.823,306.048,21.749,307.18,20.8z M299.996,60V40h20.688l19.312,19.312V60c0,11.046-8.954,20-20,20    C308.951,80,299.996,71.046,299.996,60z M315.996,104h2.696c-0.136,0.28-0.184,0.592-0.304,0.88c-0.569,1.294-1.034,2.632-1.392,4    c-0.136,0.504-0.272,1.008-0.376,1.528c-0.397,1.841-0.606,3.717-0.624,5.6v50.112l-20.624-41.248    c-0.633-1.264-1.395-2.46-2.272-3.568C296.063,111.106,305.376,104.067,315.996,104z M267.804,137.976    c-0.731-1.759-0.705-3.741,0.072-5.48c0.807-1.813,2.305-3.23,4.16-3.936c2.442-1.095,5.305-0.57,7.2,1.32    c0.74,0.584,1.36,1.307,1.824,2.128l35.776,71.552c0.385,0.745,0.884,1.426,1.48,2.016c0.189,0.176,0.389,0.339,0.6,0.488    c0.424,0.368,0.888,0.688,1.384,0.952c0.259,0.132,0.526,0.246,0.8,0.344c0.5,0.2,1.021,0.345,1.552,0.432    c0.282,0.061,0.568,0.101,0.856,0.12c0.168,0,0.328,0.072,0.504,0.072c0.619-0.002,1.236-0.072,1.84-0.208    c3.6-0.859,6.141-4.075,6.144-7.776v-84c0.007-5.272,3.485-9.909,8.544-11.392c1.115-0.376,2.28-0.581,3.456-0.608    c6.627,0,12,5.373,12,12v85.832c0.006,16.657-13.491,30.165-30.148,30.172c-12.342,0.005-23.441-7.51-28.02-18.972l-19.2-48    L267.804,137.976z M315.996,464h-28.688l2.344-2.344c1.5-1.5,2.344-3.534,2.344-5.656V280h24V464z M323.996,264h-32v-30.712    c0.632,0.68,1.32,1.304,1.992,1.944c0.32,0.304,0.624,0.632,0.952,0.928c1.468,1.324,3.021,2.55,4.648,3.672    c0.376,0.264,0.8,0.488,1.152,0.736c1.362,0.874,2.769,1.675,4.216,2.4c0.456,0.232,0.904,0.472,1.376,0.688    c1.816,0.851,3.687,1.581,5.6,2.184c0.304,0.096,0.616,0.152,0.92,0.24c1.683,0.487,3.392,0.877,5.12,1.168    c0.544,0.096,1.088,0.184,1.6,0.264c2.068,0.292,4.152,0.447,6.24,0.464c2.634-0.016,5.263-0.256,7.856-0.72    c0.288-0.048,0.576-0.072,0.864-0.128c2.382-0.469,4.723-1.127,7-1.968c0.376-0.136,0.752-0.264,1.12-0.408    c2.177-0.857,4.285-1.882,6.304-3.064c0.36-0.208,0.712-0.424,1.064-0.64c1.988-1.222,3.881-2.591,5.664-4.096    c0.088-0.08,0.2-0.136,0.296-0.216V264H323.996z M395.996,441.904V432c-0.004-2.306-0.998-4.5-2.728-6.024l-61.272-53.608V280h24    v80c0.004,2.306,0.998,4.5,2.728,6.024l58.128,50.848L395.996,441.904z" fill="#ffffff" data-original="#000000" style="" class=""/>
	</g>
</g>
<g xmlns="http://www.w3.org/2000/svg">
</g>
<g xmlns="http://www.w3.org/2000/svg">
</g>
<g xmlns="http://www.w3.org/2000/svg">
</g>
<g xmlns="http://www.w3.org/2000/svg">
</g>
<g xmlns="http://www.w3.org/2000/svg">
</g>
<g xmlns="http://www.w3.org/2000/svg">
</g>
<g xmlns="http://www.w3.org/2000/svg">
</g>
<g xmlns="http://www.w3.org/2000/svg">
</g>
<g xmlns="http://www.w3.org/2000/svg">
</g>
<g xmlns="http://www.w3.org/2000/svg">
</g>
<g xmlns="http://www.w3.org/2000/svg">
</g>
<g xmlns="http://www.w3.org/2000/svg">
</g>
<g xmlns="http://www.w3.org/2000/svg">
</g>
<g xmlns="http://www.w3.org/2000/svg">
</g>
<g xmlns="http://www.w3.org/2000/svg">
</g>
</g></svg>
